<?xml version="1.0" encoding="iso-8859-1"?>
<!-- Generator: Adobe Illustrator 19.0.0, SVG Export Plug-In . SVG Version: 6.00 Build 0)  -->
<svg xmlns="http://www.w3.org/2000/svg" xmlns:xlink="http://www.w3.org/1999/xlink" version="1.1" id="Layer_1" x="0px" y="0px" viewBox="0 0 505.003 505.003" style="enable-background:new 0 0 505.003 505.003;" xml:space="preserve" width="512" height="512">
<g>
	<g>
		<path style="fill:#6EC7EA;" d="M75.647,220.964c0,0-66.138-23.424-66.138-39.256s26.023-10.425,26.023-10.425    s-36.904-25.509-26.023-36.489c10.881-10.98,28.606,0,28.606,0s-30.01-25.068-18.692-36.489s49.688-6.516,76.354,49.306h313.45    c26.666-55.822,65.036-60.727,76.354-49.306s-18.692,36.489-18.692,36.489s17.724-10.98,28.606,0    c10.881,10.98-26.023,36.489-26.023,36.489s26.023-5.407,26.023,10.425s-66.138,39.256-66.138,39.256"/>
		<path style="fill:#6EC7EA;" d="M431.131,251.458c0-119.456-79.975-216.294-178.63-216.294s-178.63,96.838-178.63,216.294    s79.975,157.714,178.63,157.714S431.131,370.914,431.131,251.458z"/>
		<path style="fill:#51B1CE;" d="M251.201,409.168c-98.06-0.33-177.33-38.78-177.33-157.71c0-119.45,79.97-216.29,178.63-216.29    c-55.62,0-100.71,96.84-100.71,216.29C151.791,369.988,196.181,408.578,251.201,409.168z"/>
		<path style="fill:#E6E6E6;" d="M391.251,364.323c-32.75,32.52-82.74,44.85-138.75,44.85c-56.01,0-106-12.33-138.75-44.85    c32.75-48.85,82.74-80.06,138.75-80.06C308.511,284.263,358.491,315.473,391.251,364.323z"/>
		<path style="fill:#CCCCCC;" d="M113.751,364.323c32.432,32.205,81.776,44.601,137.126,44.839    c-43.042-0.579-79.524-24.507-93.254-91.895C140.945,329.951,126.118,345.877,113.751,364.323z"/>
		<g>
			<path style="fill:#FF4370;" d="M293.157,226.307l-29.215,21.419c-3.396,2.499-7.416,3.749-11.436,3.749     c-4.007,0-8.014-1.236-11.409-3.722c-0.013-0.014-0.027-0.014-0.041-0.027l-29.215-21.419c-0.041-0.041-0.095-0.068-0.136-0.095     c-0.054-0.041-0.095-0.081-0.149-0.122c-9.046-6.886-10.241-20.074-2.526-28.482c0.027-0.027,0.054-0.068,0.082-0.095     l29.215-31.429c0.014-0.014,0.027-0.027,0.041-0.041c3.83-4.088,8.978-6.139,14.139-6.139s10.309,2.051,14.139,6.139     c0.014,0.014,0.027,0.027,0.041,0.041l29.215,31.429c0.027,0.027,0.041,0.041,0.054,0.068     C303.778,206.07,302.474,219.475,293.157,226.307z"/>
			<path style="fill:#E52E62;" d="M252.505,159.904v91.571c-4.007,0-8.014-1.236-11.409-3.722c-0.013-0.014-0.027-0.014-0.041-0.027     l-29.215-21.419c-0.041-0.041-0.095-0.068-0.136-0.095c-9.182-6.859-10.431-20.156-2.676-28.604     c0.027-0.027,0.054-0.068,0.082-0.095l29.215-31.429c0.014-0.014,0.027-0.027,0.041-0.041     C242.196,161.955,247.344,159.904,252.505,159.904z"/>
		</g>
		<g>
			<ellipse style="fill:#51B1CE;" cx="343.434" cy="213.683" rx="22.48" ry="15.638"/>
			<ellipse style="fill:#51B1CE;" cx="155.778" cy="213.683" rx="22.48" ry="15.638"/>
		</g>
	</g>
	<g>
		<path d="M504.932,141.142c0.415-4.474-1.007-8.495-4.111-11.628c-3.487-3.519-7.691-5.749-12.461-6.653    c3.896-5.473,6.978-11.565,7.251-17.363c0.227-4.826-1.399-9.139-4.703-12.473c-6.014-6.068-15.797-8.476-26.847-6.606    c-9.95,1.684-33.669,9.445-54.542,44.702c-7.1-13.346-15.426-25.88-24.925-37.382c-32.839-39.763-75.886-62.846-122.119-65.754    c6.021-8.428,20.993-12.579,21.17-12.625c4.013-1.029,6.432-5.115,5.402-9.128c-1.028-4.012-5.116-6.431-9.127-5.403    c-0.991,0.254-17.458,4.625-27.419,15.682C242.54,5.454,226.073,1.084,225.083,0.83c-4-1.024-8.08,1.385-9.115,5.389    c-1.036,4.004,1.373,8.093,5.375,9.137c0.189,0.049,15.164,4.201,21.185,12.629c-31.157,1.992-61.335,13.296-87.835,32.997    c-3.324,2.471-4.016,7.169-1.544,10.493c2.471,3.324,7.17,4.015,10.493,1.544c26.713-19.859,57.439-30.356,88.859-30.356    c94.361,0,171.13,93.665,171.13,208.794c0,42.713-10.583,76.394-31.602,100.951c-7.086-9.64-14.855-18.569-23.196-26.604    c-2.984-2.875-7.733-2.785-10.604,0.198c-2.874,2.983-2.785,7.731,0.198,10.605c8.296,7.993,15.996,16.948,22.961,26.667    c-28.588,25.534-71.613,38.398-128.887,38.398c-57.273,0-100.298-12.864-128.886-38.398    c32.584-45.529,79.237-71.511,128.889-71.511c28.897,0,57.462,8.966,82.607,25.928c3.433,2.315,8.094,1.411,10.412-2.024    c2.316-3.434,1.41-8.095-2.023-10.412c-27.633-18.64-59.099-28.492-90.996-28.492c-53.789,0-104.165,27.455-139.529,75.647    c-21.021-24.557-31.604-58.239-31.604-100.952c0-59.755,21.079-116.772,57.831-156.431c2.815-3.038,2.635-7.783-0.403-10.599    c-3.038-2.816-7.783-2.635-10.599,0.403c-12.71,13.715-23.654,29.358-32.662,46.382C74.652,95.876,50.9,88.104,40.941,86.419    c-11.044-1.868-20.832,0.539-26.846,6.607c-3.304,3.333-4.93,7.647-4.703,12.473c0.272,5.798,3.354,11.89,7.25,17.363    c-4.769,0.904-8.975,3.135-12.461,6.653c-3.104,3.133-4.526,7.154-4.11,11.628c0.729,7.852,7.66,16.352,15.003,23.286    c-2.639,0.849-4.916,2.049-6.816,3.595c-4.088,3.326-6.249,8.058-6.249,13.684c0,6.816,4.246,16.653,37.357,32.343    c11.017,5.22,21.904,9.534,28.233,11.935c-0.804,8.417-1.227,16.918-1.227,25.473c0,92.007,46.65,147.081,135.637,161.432v43.017    l-26.369,26.37c-2.929,2.929-2.929,7.678,0,10.606c2.93,2.929,7.678,2.929,10.607,0l15.762-15.762v19.788    c0,4.142,3.357,7.5,7.5,7.5s7.5-3.358,7.5-7.5v-19.788l15.762,15.762c1.465,1.465,3.384,2.197,5.304,2.197    c1.919,0,3.839-0.732,5.304-2.197c2.929-2.929,2.929-7.677,0-10.606l-26.369-26.37v-41.026    c11.231,1.185,23.057,1.791,35.493,1.791c12.435,0,24.262-0.606,35.492-1.791v41.026l-26.369,26.37    c-2.929,2.929-2.929,7.678,0,10.606c2.93,2.929,7.678,2.929,10.607,0l15.762-15.762v19.788c0,4.142,3.357,7.5,7.5,7.5    s7.5-3.358,7.5-7.5v-19.788l15.763,15.763c1.465,1.465,3.385,2.197,5.304,2.197c1.92,0,3.839-0.732,5.304-2.197    c2.929-2.929,2.929-7.678,0-10.606l-26.37-26.37v-43.017c88.988-14.351,135.638-69.425,135.638-161.433    c0-8.579-0.412-17.081-1.199-25.484c6.333-2.402,17.204-6.711,28.204-11.924c33.111-15.69,37.357-25.526,37.357-32.343    c0-5.626-2.161-10.358-6.249-13.684c-1.9-1.546-4.178-2.746-6.815-3.595C497.271,157.494,504.203,148.995,504.932,141.142z     M47.414,201.259c-26.591-12.393-30.064-18.956-30.402-19.758c0.039-1.291,0.438-1.618,0.708-1.838    c2.779-2.271,11.252-2.061,16.286-1.037c3.49,0.727,7.014-1.109,8.419-4.389s0.306-7.095-2.629-9.124    c-0.067-0.047-6.848-4.751-13.491-10.833c-9.778-8.952-11.1-13.374-11.276-14.399c1.1-1.079,4.013-3.5,10.826-1.977    c4.588,1.024,8.3,3.26,8.311,3.266c3.346,2.072,7.72,1.205,10.025-1.983c2.305-3.189,1.752-7.618-1.264-10.145    c-7.313-6.125-18.265-18.068-18.551-24.25c-0.037-0.792,0.153-0.984,0.374-1.207c1.838-1.854,6.522-3.588,13.689-2.376    c24.939,4.22,42.538,33.787,49.099,46.663c-8.537,19.675-14.642,40.829-18.033,62.77    C63.674,208.368,55.581,205.066,47.414,201.259z M465.207,165.113c-2.935,2.029-4.034,5.844-2.629,9.124    c1.404,3.279,4.929,5.116,8.419,4.389c4.889-1.015,13.497-1.231,16.281,1.033c0.271,0.221,0.674,0.548,0.713,1.842    c-0.338,0.802-3.812,7.365-30.401,19.758c-8.146,3.796-16.216,7.091-22.043,9.364c-3.358-22.032-9.426-43.19-18.01-62.893    c6.618-12.951,24.179-42.316,49.026-46.521c7.167-1.213,11.854,0.522,13.69,2.375c0.22,0.222,0.41,0.414,0.374,1.207    c-0.287,6.182-11.239,18.125-18.548,24.247c-3.021,2.524-3.576,6.954-1.272,10.146c2.305,3.191,6.684,4.06,10.03,1.986    c0.126-0.078,12.596-7.511,19.16-1.261C489.712,143.475,480.251,154.697,465.207,165.113z"/>
		<path d="M272.048,160.842c-5.063-5.364-12.181-8.438-19.543-8.438c-7.35,0-14.456,3.064-19.54,8.434    c-0.045,0.046-0.089,0.093-0.133,0.14l-29.216,31.429v0c-0.075,0.081-0.151,0.166-0.227,0.254    c-5.021,5.54-7.518,12.973-6.854,20.419c0.663,7.441,4.426,14.307,10.342,18.874c0.108,0.09,0.222,0.18,0.345,0.271    c0.078,0.059,0.158,0.115,0.238,0.171l29.16,21.379v0c0.053,0.038,0.104,0.076,0.157,0.113c4.597,3.329,10.031,5.088,15.728,5.088    c5.76,0,11.252-1.801,15.87-5.2l29.216-21.419v0c6.162-4.518,10.12-11.469,10.857-19.072c0.73-7.522-1.757-15.024-6.827-20.62    c-0.075-0.088-0.151-0.174-0.229-0.258l-29.215-31.429C272.143,160.94,272.095,160.89,272.048,160.842z M243.757,171.257    c0.029-0.031,0.059-0.061,0.082-0.086c2.275-2.429,5.354-3.767,8.666-3.767s6.39,1.338,8.665,3.767    c0.025,0.027,0.06,0.062,0.095,0.098l26.995,29.041c-11.609,3.356-23.595,5.059-35.754,5.06c-0.003,0-0.006,0-0.009,0    c-12.156,0-24.141-1.702-35.75-5.055L243.757,171.257z M288.722,220.259l-29.227,21.427c-2.035,1.498-4.452,2.289-6.99,2.289    c-2.534,0-4.947-0.786-6.979-2.273v0c-0.046-0.033-0.092-0.066-0.138-0.099l-28.969-21.239c-0.08-0.062-0.161-0.123-0.244-0.182    c-0.027-0.022-0.054-0.042-0.077-0.06c-1.895-1.443-3.257-3.357-4.007-5.539c13.114,3.839,26.661,5.785,40.405,5.785    c0.003,0,0.007,0,0.009,0c13.747-0.001,27.297-1.949,40.41-5.79C292.142,216.834,290.712,218.799,288.722,220.259z"/>
		<path d="M155.21,173.073c5.137-5.137,11.966-7.966,19.23-7.966s14.094,2.829,19.23,7.966c1.465,1.465,3.384,2.197,5.304,2.197    c1.919,0,3.839-0.732,5.304-2.197c2.929-2.929,2.929-7.678,0-10.607c-7.971-7.97-18.566-12.359-29.838-12.359    s-21.867,4.389-29.838,12.359c-2.929,2.929-2.929,7.678,0,10.607C147.533,176.001,152.281,176.002,155.21,173.073z"/>
		<path d="M311.332,173.073c5.137-5.137,11.966-7.966,19.23-7.966s14.094,2.829,19.23,7.966c1.465,1.465,3.384,2.197,5.304,2.197    c1.919,0,3.839-0.732,5.304-2.197c2.929-2.929,2.929-7.678,0-10.607c-7.971-7.97-18.566-12.359-29.838-12.359    s-21.867,4.389-29.838,12.359c-2.929,2.929-2.929,7.678,0,10.607C303.654,176.001,308.402,176.002,311.332,173.073z"/>
	</g>
</g>















</svg>
